<svg width="183" height="25" viewBox="0 0 183 25" fill="none" xmlns="http://www.w3.org/2000/svg">
<path d="M4.94592 16.4397H0V8.01653H5.16675C8.68953 8.01653 10.1793 9.23986 10.1793 12.2053C10.1793 15.1778 8.58437 16.4397 4.94592 16.4397Z" fill="#1E2144"/>
<path d="M19.2614 12.2298C19.2614 18.9845 13.7862 24.4597 7.03153 24.4597H4.69001C4.54279 24.4597 4.39557 24.4527 4.25185 24.4387C1.76312 24.2073 2.02952 20.4392 4.52877 20.4392H5.6154C11.8477 20.4392 15.2584 17.5473 15.2584 12.1667C15.2584 6.64246 12.1071 4.01001 6.01851 4.01001H4.52877C2.03653 4.01001 1.77013 0.248872 4.25185 0.0210307C4.39557 0.00700966 4.54279 0 4.69001 0H7.03153C13.7862 0 19.2614 5.47522 19.2614 12.2298Z" fill="#1E2144"/>
<path d="M104.597 2.81823L108.074 2.30647V21.1788H104.597V2.81823Z" fill="#2F9687"/>
<path d="M29.721 3.27744H36.4897C42.9604 3.27744 46.0345 6.08164 46.0345 12.2018C46.0345 18.35 42.9604 21.1788 36.4897 21.1788H29.721V3.27744ZM36.6509 18.322C40.5067 18.322 42.3399 16.5694 42.3399 12.2018C42.3399 7.86231 40.5347 6.13422 36.707 6.13422H33.3104V18.3185H36.6509V18.322Z" fill="#2F9687"/>
<path d="M61.1842 15.5984H51.1276C51.4781 17.8102 52.9889 18.9424 55.737 18.9424C57.6228 18.9424 58.7024 18.5638 60.6163 17.7576L60.1571 20.5338C59.1581 20.9649 57.6754 21.6134 55.0605 21.6134C50.721 21.6134 47.5382 18.9985 47.5382 14.5223C47.5382 10.1267 50.6649 7.40308 54.5733 7.40308C58.5097 7.40308 61.2578 10.018 61.2578 14.007C61.2648 14.5468 61.2368 15.0866 61.1842 15.5984ZM51.1556 13.2534H57.9243C57.7105 11.1222 56.4696 10.046 54.5803 10.046C52.7996 10.046 51.5062 11.0976 51.1556 13.2534Z" fill="#2F9687"/>
<path d="M76.4426 12.4191V21.1822H72.9654V13.015C72.9654 11.2624 71.9664 10.2388 70.1611 10.2388C68.3805 10.2388 66.9784 11.9389 66.9784 13.9859V21.1857H63.5012V8.00248L66.8171 7.59937V9.62191C67.7881 8.43713 69.1902 7.46617 71.5878 7.46617C74.6093 7.45565 76.4426 9.42561 76.4426 12.4191Z" fill="#2F9687"/>
<path d="M80.4842 17.7016V10.3686H78.1917V9.85679L80.8873 7.1893L83.4216 4.65499H83.9614V7.83777H88.1677V10.3721H83.9614V17.2459C83.9614 18.2449 84.5012 18.8092 85.5247 18.8092C86.3064 18.8092 87.2493 18.6199 88.3815 18.2975L87.9503 20.9404C86.9794 21.2629 85.9278 21.5608 84.3925 21.5608C81.8337 21.5573 80.4842 20.1833 80.4842 17.7016Z" fill="#2F9687"/>
<path d="M94.6384 12.5803C96.4436 12.5803 97.6038 13.3094 98.4136 13.8212V13.0676C98.4136 11.017 97.1201 10.0741 95.1782 10.0741C93.1557 10.0741 91.6449 10.6665 90.4075 11.0976L90.8667 8.02351C92.4581 7.62041 93.9654 7.40308 95.7986 7.40308C99.6825 7.40308 101.891 9.28891 101.891 13.0921V21.1787H98.5468V19.994C97.8457 20.8037 96.363 21.5854 94.4491 21.5854C91.4311 21.5854 89.5417 19.5909 89.5417 17.0005C89.5417 14.4101 91.5643 12.5803 94.6384 12.5803ZM95.4481 19.0756C96.9834 19.0756 98.4416 17.9434 98.4416 16.1908V16.1382C97.4706 15.4652 96.4997 15.1392 95.3955 15.1392C93.9128 15.1392 93.0225 15.8928 93.0225 17.025C93.0225 18.1607 93.9093 19.0756 95.4481 19.0756Z" fill="#2F9687"/>
<path d="M118.537 3.3335H126.519C130.939 3.3335 133.231 5.24736 133.231 9.26438C133.231 13.1727 130.75 15.2759 126.221 15.2759H122.123V21.2348H118.537V3.3335ZM125.734 12.363C128.377 12.363 129.533 11.4482 129.533 9.28892C129.533 7.13319 128.454 6.24285 125.895 6.24285H122.12V12.363H125.734Z" fill="#1E2144"/>
<path d="M135.573 2.87434L139.05 2.36256V21.2349H135.573V2.87434Z" fill="#1E2144"/>
<path d="M146.79 12.6329C148.595 12.6329 149.755 13.362 150.565 13.8738V13.1202C150.565 11.0696 149.271 10.1267 147.329 10.1267C145.307 10.1267 143.796 10.7191 142.559 11.1502L143.018 8.0761C144.609 7.673 146.117 7.45567 147.95 7.45567C151.834 7.45567 154.042 9.3415 154.042 13.1447V21.2313H150.698V20.0466C149.997 20.8563 148.514 21.6379 146.6 21.6379C143.582 21.6379 141.693 19.6434 141.693 17.0531C141.693 14.4627 143.716 12.6329 146.79 12.6329ZM147.596 19.1317C149.131 19.1317 150.589 17.9995 150.589 16.2469V16.1943C149.618 15.5213 148.647 15.1953 147.543 15.1953C146.061 15.1953 145.17 15.9489 145.17 17.0811C145.17 18.2133 146.061 19.1317 147.596 19.1317Z" fill="#1E2144"/>
<path d="M167.989 17.7016L167.53 20.4777C166.317 21.2068 164.754 21.6625 162.945 21.6625C158.445 21.6625 155.882 18.8583 155.882 14.5433C155.882 10.337 158.767 7.45219 163.135 7.45219C164.751 7.45219 166.233 7.88334 167.313 8.36706L167.853 11.5744C166.237 10.7647 164.887 10.1723 163.433 10.1723C161.116 10.1723 159.444 11.7882 159.468 14.5398C159.496 17.5333 160.951 18.988 163.433 18.988C164.999 18.995 166.535 18.5113 167.989 17.7016Z" fill="#1E2144"/>
<path d="M182.925 15.651H172.869C173.219 17.8628 174.73 18.995 177.478 18.995C179.364 18.995 180.444 18.6164 182.357 17.8102L181.898 20.5864C180.899 21.0175 179.417 21.666 176.802 21.666C172.462 21.666 169.279 19.0511 169.279 14.5749C169.279 10.1793 172.406 7.45567 176.314 7.45567C180.251 7.45567 182.999 10.0706 182.999 14.0596C183.006 14.6029 182.978 15.1392 182.925 15.651ZM172.897 13.3059H179.665C179.452 11.1747 178.211 10.0986 176.321 10.0986C174.541 10.0986 173.247 11.1502 172.897 13.3059Z" fill="#1E2144"/>
</svg>
